<?xml version="1.0" encoding="utf-8"?>
<!-- Generator: Adobe Illustrator 19.1.0, SVG Export Plug-In . SVG Version: 6.00 Build 0)  -->
<svg version="1.1" id="Layer_1" xmlns="http://www.w3.org/2000/svg" xmlns:xlink="http://www.w3.org/1999/xlink" x="0px" y="0px"
	 viewBox="0 0 310.7 430.4" style="enable-background:new 0 0 310.7 430.4;" xml:space="preserve">
<style type="text/css">
	.st0{clip-path:url(#SVGID_2_);fill:#FFFFFF;}
</style>
<g>
	<defs>
		<rect id="SVGID_1_" width="310.7" height="430.4"/>
	</defs>
	<clipPath id="SVGID_2_">
		<use xlink:href="#SVGID_1_"  style="overflow:visible;"/>
	</clipPath>
	<path class="st0" d="M67.9,409.5c-1.2,0.1-2.5,0.2-3.7,0.2C65.4,409.7,66.6,409.6,67.9,409.5"/>
	<path class="st0" d="M80,349.1c0.1-0.1,0.1-0.3,0.2-0.4C80.2,348.9,80.1,349,80,349.1"/>
	<path class="st0" d="M64.9,208.7c-0.2,0.2-0.4,0.4-0.6,0.6C64.4,209.1,64.7,208.9,64.9,208.7"/>
	<path class="st0" d="M83.6,262.1c0.1,1.3,0.1,2.5,0.1,3.5v0C83.8,264.6,83.7,263.4,83.6,262.1"/>
	<path class="st0" d="M207.4,398.5c-13.2,7.8-28.1,11.7-43.1,11.5C179.3,410.2,194.2,406.3,207.4,398.5"/>
	<path class="st0" d="M228.5,215.2c19-12.1,27.8-35.2,30.1-44.1C256.3,180,247.5,203.1,228.5,215.2"/>
	<path class="st0" d="M259.9,166.2c-0.3,1.2-0.7,2.5-1,3.8C259.3,168.7,259.6,167.4,259.9,166.2"/>
	<path class="st0" d="M164,410c-0.3,0-0.5,0-0.8,0C163.5,410,163.7,410,164,410"/>
	<path class="st0" d="M259.5,262.6c0.2,0.6,0.3,1.3,0.5,1.9C259.8,263.9,259.7,263.2,259.5,262.6"/>
	<path class="st0" d="M98.5,394.5c2.5-2.8,4.5-5.9,6.1-9.4c8.6,8.6,18.7,14.9,29.5,19.1c-10.8-4.2-20.9-10.5-29.5-19.1
		C103,388.6,100.9,391.7,98.5,394.5"/>
	<path class="st0" d="M276.5,129.7c-1.3,1.6-2.5,3.3-3.6,5.1C274,133.1,275.2,131.3,276.5,129.7c-10.9-8.7-17.1-17.4-21.4-26.1
		C259.4,112.3,265.5,121.1,276.5,129.7"/>
	<path class="st0" d="M21,374.1c1.4,0.7,2.9,1.2,4.3,1.7C23.9,375.3,22.4,374.8,21,374.1"/>
	<path class="st0" d="M78.1,353.2c0.1-0.1,0.1-0.2,0.2-0.3C78.3,353,78.2,353.1,78.1,353.2"/>
	<path class="st0" d="M257.8,256.5c-3.2-10.3-12.1-30.3-29.3-41.3C245.7,226.2,254.6,246.2,257.8,256.5"/>
	<path class="st0" d="M20.4,373.9c0.1,0.3,0.2,0.7,0.2,1C20.6,374.5,20.5,374.2,20.4,373.9z"/>
	<path class="st0" d="M83.6,97.1c0.1,1.1,0.2,2.2,0.2,3.3v0C83.8,99.2,83.7,98.1,83.6,97.1"/>
	<path class="st0" d="M63.6,20.7c17.7,0,34,9.5,41,24.6c26.6-26.6,67.7-32.1,99.5-15.2c-31.8-16.9-72.8-11.4-99.5,15.2
		C97.6,30.1,81.3,20.6,63.6,20.7c-21.5,0-39.4,15.5-43.2,35.9c0,0,0,0,0,0C24.2,36.1,42.1,20.7,63.6,20.7"/>
	<path class="st0" d="M38.8,52.3c3,0,5.9,0.3,8.8,0.9C44.7,52.6,41.8,52.3,38.8,52.3C38.8,52.3,38.8,52.3,38.8,52.3"/>
	<path class="st0" d="M63.6,409.7L63.6,409.7c-0.1,0-0.1,0-0.2,0C63.5,409.7,63.5,409.7,63.6,409.7"/>
	<path class="st0" d="M65.7,207.8c1.9-1.9,3.6-3.9,5.1-5.9C69.3,203.9,67.6,205.9,65.7,207.8"/>
	<path class="st0" d="M118.8,174.8V84.1c8.1-13.4,23.6-22.8,41.7-23.9c-18.1,1.1-33.6,10.5-41.7,23.9L118.8,174.8
		c8.6,14.3,25.7,24,45.4,24c10.4,0,20-2.7,28.1-7.4c-8.1,4.7-17.7,7.4-28.1,7.4C144.5,198.8,127.5,189.1,118.8,174.8"/>
	<path class="st0" d="M83.5,95.4c-0.1-0.6-0.2-1.1-0.2-1.7C83.3,94.3,83.5,94.8,83.5,95.4"/>
	<path class="st0" d="M235.4,58.4c6.5,9.5,9.5,18,12.5,26.9C244.9,76.5,241.9,67.9,235.4,58.4"/>
	<path class="st0" d="M213.8,141.9c-0.9-3.1-2.2-6.1-3.8-8.9C211.6,135.9,212.9,138.8,213.8,141.9"/>
	<path class="st0" d="M214.4,115c-1.1,4.3-2.8,8.3-5.1,12C211.6,123.3,213.3,119.3,214.4,115"/>
	<path class="st0" d="M202.8,105.4c0-17.9-17.3-32.6-38.6-32.6c-13.7,0-25.8,6-32.6,15.1v83c6.9,9.1,18.9,15.1,32.6,15.1
		c21.3,0,38.6-14.6,38.6-32.6c0-9.5-4.9-18.1-12.6-24.1C197.9,123.5,202.8,114.9,202.8,105.4 M195.7,153c0,14.4-13.7,26-30.5,26
		c-11.4,0-21-3.9-26.5-10.8V90.8c5.6-6.9,15.1-10.8,26.5-10.8c16.8,0,30.5,11.6,30.5,26c0,9.4-8.1,17.9-17.5,23.5
		C187.6,135.1,195.7,143.5,195.7,153"/>
	<path class="st0" d="M73.3,198.4c0.8-1.2,1.5-2.3,2.1-3.5C74.8,196.1,74.1,197.3,73.3,198.4"/>
	<path class="st0" d="M71.2,201.4c0.7-1,1.4-2,2.1-3C72.6,199.4,71.9,200.4,71.2,201.4"/>
	<path class="st0" d="M277.7,253.6c-5-17.7-10.5-29.9-19.9-38.4c9.4-8.5,14.9-20.7,19.9-38.4c6.1-21.8,9.2-37.8,33-48.5
		c-35.7-16.4-39.1-36.5-49-62.9C250.8,36.3,215.3,0,164.1,0c-21.5,0-41.4,6.5-57.5,17.6C95.3,6.9,80.1,0.3,63.4,0.3
		C28.4,0.3,0,29.1,0,64.7C0,77.9,3.8,90,10.4,100.2c3.8-15.9,16-28.2,28.9-28c13.4,0.2,24.6,13,24.6,29.1l0,64.7
		c0,23.7-24.2,42.6-55.6,49.2c31.4,6.6,55.6,25.5,55.6,49.2l0,64.8c0,16-11.2,28.9-24.6,29.1c-12.9,0.2-25-12.1-28.9-28
		C3.8,340.4,0,352.6,0,365.7c0,35.6,28.4,64.5,63.4,64.5c16.7,0,31.9-6.6,43.2-17.3c16.2,11.1,36,17.6,57.5,17.6
		c51.2,0,86.6-36.3,97.5-65.4c9.9-26.4,13.3-46.4,49-62.9C286.9,291.5,283.8,275.4,277.7,253.6 M232.4,395.2
		c-34.5,34.5-88.8,37.2-126.4,8.2c-10.4,11.7-25.5,19-42.3,19c-31.3,0-56.7-25.4-56.7-56.7c0-6.8,1.2-13.3,3.3-19.3
		c5.4,11.2,16.2,18.8,28.5,18.8c17.8,0,32.2-15.8,32.2-35.2v-64.5c0-6.8-2.3-36.8-40.9-50.4C68.8,201.6,71,171.5,71,164.8v-64.5
		c0-19.5-14.4-35.3-32.2-35.3c-12.4,0-23.1,7.6-28.5,18.9c-2.2-6-3.3-12.5-3.3-19.3c0-31.3,25.4-56.7,56.7-56.7
		c16.8,0,31.9,7.3,42.3,19c37.6-29,91.9-26.3,126.4,8.2c40,40,16.7,65.3,64.9,93.2c-13.5,8.1-17.7,19.5-24.1,38.1
		c-3.9,11.5-5.3,33.5-27.3,48.8c22,15.2,23.4,37.3,27.3,48.8c6.4,18.6,10.6,30,24.1,38C249,329.9,272.3,355.3,232.4,395.2"/>
	<path class="st0" d="M118.8,346.3v-90.7c5.4-8.9,14.1-16.1,24.7-20.2c-10.6,4.1-19.3,11.2-24.7,20.2L118.8,346.3
		c5.7,9.5,15.1,16.9,26.5,20.9C134,363.2,124.5,355.7,118.8,346.3"/>
	<path class="st0" d="M232.9,375.4c8.5-11.1,11.8-20.9,15.3-31.1c0.8-2.3,1.5-4.5,2.4-6.8c-0.8,2.3-1.6,4.5-2.4,6.8
		C244.7,354.5,241.4,364.2,232.9,375.4"/>
	<path class="st0" d="M207.7,300.9L207.7,300.9c3.1-4.4,5.4-9.2,6.7-14.4C213.1,291.7,210.8,296.6,207.7,300.9"/>
	<path class="st0" d="M202.8,276.9c0-18-17.3-32.6-38.6-32.6c-13.7,0-25.8,6-32.6,15.1v83c6.9,9.1,18.9,15.1,32.6,15.1
		c21.3,0,38.6-14.6,38.6-32.6c0-9.5-4.9-18.1-12.6-24C197.9,295,202.8,286.4,202.8,276.9 M195.7,324.1c0,14.4-13.7,26.3-30.5,26.3
		c-11.4,0-21-4.2-26.5-11.1V262c5.6-6.9,15.1-10.8,26.5-10.8c16.8,0,30.5,11.7,30.5,26c0,9.4-8.1,17.9-17.5,23.5
		C187.6,306.3,195.7,314.7,195.7,324.1"/>
	<path class="st0" d="M276.5,300.7c-14.9,11.8-21,23.6-25.4,35.3C255.5,324.3,261.7,312.4,276.5,300.7c-4.2-5.2-7.2-11-9.8-17.2
		C269.3,289.7,272.3,295.5,276.5,300.7"/>
	<path class="st0" d="M276.5,300.7c-4.2-5.2-7.2-11-9.8-17.2c-2-4.9-3.8-10-5.6-15.4c-0.4-1.2-0.7-2.4-1.1-3.6
		c-0.2-0.6-0.4-1.3-0.5-1.9c-0.3-1-0.5-2-0.8-3c-0.2-0.9-0.5-1.9-0.9-3c-3.2-10.3-12.1-30.3-29.3-41.3
		c18.9-12.1,27.8-35.2,30.1-44.1c0-0.1,0-0.1,0.1-0.2c0.1-0.3,0.2-0.6,0.2-0.9c0.3-1.3,0.7-2.6,1-3.8c0.4-1.3,0.7-2.6,1.2-3.9
		c3.5-10.1,6.7-19.4,11.8-27.5c1.1-1.7,2.3-3.4,3.6-5.1c-10.9-8.7-17.1-17.4-21.4-26.1c-2.9-5.9-4.9-11.8-6.9-17.6
		c-0.1-0.3-0.2-0.5-0.3-0.8c-3-8.8-6-17.4-12.5-26.9c-3.1-4.5-7-9.2-12-14.2c-5.8-5.8-12.3-10.5-19.3-14.2
		c-31.8-16.8-72.8-11.4-99.5,15.2c-7-15.1-23.3-24.6-41-24.6c-21.5,0-39.4,15.5-43.2,35.9c5.6-2.7,11.9-4.2,18.4-4.2c0,0,0,0,0,0
		c0,0,0,0,0,0c3,0,5.9,0.3,8.8,0.9c18.6,4,33.1,20.2,35.7,40.5c0.1,0.6,0.2,1.1,0.2,1.7c0.1,0.5,0,1.1,0.1,1.6
		c0.1,1.1,0.2,2.2,0.2,3.3v0v64.5v0c0,7-1.7,18.5-8.3,30.2c-0.7,1.2-1.4,2.3-2.1,3.5c0,0,0,0,0,0c-0.7,1-1.4,2-2.1,3
		c-0.1,0.2-0.2,0.3-0.4,0.5c-1.5,2-3.2,4-5.1,5.9c-0.3,0.3-0.6,0.6-0.9,0.9c-0.2,0.2-0.4,0.4-0.6,0.6c-2.1,2-4.3,4-6.8,5.9
		c20,14.9,25.4,34.9,26.2,46.9c0.1,1.3,0.1,2.5,0.1,3.5v0v64.5v0c0,6.6-1.3,12.9-3.5,18.7c-0.1,0.1-0.1,0.3-0.2,0.4
		c-0.5,1.3-1.1,2.6-1.7,3.8c-0.1,0.1-0.1,0.2-0.2,0.3c-7.7,14.8-22.4,24.8-39.3,24.8c-4.7,0-9.2-0.8-13.5-2.2
		c-1.5-0.5-2.9-1.1-4.3-1.7c-0.2-0.1-0.4-0.2-0.6-0.2c0.1,0.3,0.2,0.7,0.2,1c4.2,19.8,21.7,34.7,42.8,34.8c0.1,0,0.1,0,0.2,0
		c0.2,0,0.4,0,0.5,0c1.2,0,2.5-0.1,3.7-0.2c12.1-1,23.1-6.5,30.6-15c2.5-2.8,4.5-5.9,6.1-9.4c8.6,8.6,18.7,14.9,29.5,19.1
		c9.3,3.6,19.2,5.5,29.1,5.8c0.3,0,0.5,0,0.8,0c0.1,0,0.2,0,0.4,0c15,0.1,29.9-3.7,43.1-11.5c5.7-3.4,11.1-7.4,15.9-12.3
		c3.8-3.8,6.9-7.4,9.6-10.9c8.5-11.1,11.8-20.9,15.3-31.1c0.8-2.2,1.5-4.5,2.4-6.8c0.2-0.5,0.4-1,0.6-1.6
		C255.5,324.3,261.6,312.4,276.5,300.7 M215.6,325c0,25-23,45.3-51.4,45.3c-6.7,0-13-1.1-18.8-3.2c-11.4-4-20.8-11.4-26.5-20.8
		v-90.7c5.4-8.9,14.1-16.1,24.7-20.2c6.3-2.5,13.3-3.8,20.7-3.8c28.4,0,51.4,20.3,51.4,45.3c0,3.3-0.4,6.6-1.2,9.7
		c-1.3,5.2-3.6,10-6.7,14.4C212.7,307.9,215.6,316.2,215.6,325 M215.6,153.5c0,15.9-9.3,29.8-23.3,37.9c-8.1,4.7-17.7,7.4-28.1,7.4
		c-19.7,0-36.7-9.7-45.4-24V84.1c8.1-13.4,23.6-22.8,41.7-23.9c1.2-0.1,2.4-0.1,3.7-0.1c28.4,0,51.4,20.3,51.4,45.3
		c0,3.3-0.4,6.6-1.2,9.7c-1,4.3-2.8,8.3-5.1,12c-0.5,0.8-1,1.6-1.6,2.4c0.8,1.2,1.6,2.4,2.3,3.6c1.6,2.8,2.9,5.8,3.8,8.9
		C214.9,145.6,215.6,149.5,215.6,153.5"/>
	<path class="st0" d="M210,133.1c-0.7-1.2-1.5-2.4-2.3-3.6c0.6-0.8,1.1-1.6,1.6-2.4c-0.5,0.8-1,1.6-1.6,2.4
		C208.5,130.6,209.3,131.8,210,133.1"/>
	<path class="st0" d="M215.6,105.4c0,3.3-0.4,6.6-1.2,9.7C215.2,111.9,215.6,108.7,215.6,105.4c0-25-23-45.3-51.4-45.3
		c-1.2,0-2.4,0-3.7,0.1c1.2-0.1,2.4-0.1,3.7-0.1C192.5,60.1,215.6,80.4,215.6,105.4"/>
	<path class="st0" d="M192.3,191.4c14-8.1,23.3-22,23.3-37.9c0-4-0.6-7.9-1.7-11.6c1.1,3.7,1.7,7.6,1.7,11.6
		C215.6,169.4,206.3,183.3,192.3,191.4"/>
	<path class="st0" d="M251.1,336c-0.2,0.5-0.4,1-0.6,1.6C250.7,337,250.9,336.5,251.1,336"/>
	<path class="st0" d="M70.8,201.9c0.1-0.2,0.2-0.3,0.4-0.5C71.1,201.6,71,201.8,70.8,201.9"/>
	<path class="st0" d="M78.3,352.9c0.6-1.2,1.2-2.5,1.7-3.8C79.5,350.4,78.9,351.7,78.3,352.9"/>
	<path class="st0" d="M20.4,373.9L20.4,373.9c0.2,0.1,0.4,0.2,0.6,0.2C20.8,374,20.6,374,20.4,373.9"/>
	<path class="st0" d="M63.6,409.7c0.2,0,0.4,0,0.5,0C64,409.7,63.8,409.7,63.6,409.7"/>
	<path class="st0" d="M163.2,410c-9.9-0.2-19.7-2.2-29.1-5.8C143.5,407.8,153.3,409.8,163.2,410"/>
	<path class="st0" d="M164.3,410c-0.1,0-0.2,0-0.4,0C164.1,410,164.2,410,164.3,410"/>
	<path class="st0" d="M47.6,53.2c18.6,4,33.1,20.2,35.7,40.5C80.7,73.5,66.2,57.2,47.6,53.2"/>
	<path class="st0" d="M73.3,198.4C73.3,198.4,73.3,198.4,73.3,198.4C73.3,198.4,73.3,198.4,73.3,198.4"/>
	<path class="st0" d="M83.8,330.1c0,6.6-1.3,12.9-3.5,18.7C82.5,343,83.8,336.7,83.8,330.1L83.8,330.1z"/>
	<path class="st0" d="M57.4,215.2c2.5-1.9,4.8-3.9,6.8-5.9C62.2,211.3,59.9,213.3,57.4,215.2c20,14.9,25.4,34.9,26.2,46.9
		C82.8,250.1,77.4,230.1,57.4,215.2"/>
	<path class="st0" d="M65.7,207.8c-0.3,0.3-0.6,0.6-0.9,0.9C65.2,208.4,65.4,208.1,65.7,207.8"/>
	<path class="st0" d="M83.8,164.8c0,7-1.7,18.5-8.3,30.2C82.1,183.3,83.8,171.8,83.8,164.8L83.8,164.8z"/>
	<path class="st0" d="M207.4,398.5c5.7-3.4,11.1-7.4,16-12.3c3.8-3.8,6.9-7.4,9.5-10.9c-2.6,3.5-5.8,7.1-9.6,10.9
		C218.5,391.1,213.1,395.1,207.4,398.5"/>
	<path class="st0" d="M67.9,409.5c12-1,23.1-6.5,30.6-15C91,403.1,79.9,408.5,67.9,409.5"/>
	<path class="st0" d="M20.7,374.9c4.2,19.8,21.7,34.7,42.8,34.8C42.4,409.6,24.8,394.7,20.7,374.9"/>
	<path class="st0" d="M78.1,353.2c-7.7,14.8-22.4,24.8-39.3,24.8c-4.7,0-9.2-0.8-13.5-2.2c4.3,1.4,8.8,2.2,13.5,2.2
		C55.7,378.1,70.5,368,78.1,353.2"/>
	<path class="st0" d="M259.5,262.6c-0.3-1-0.5-2-0.8-3.1c-0.2-0.9-0.5-1.9-0.9-3c0.4,1.1,0.7,2.2,0.9,3
		C259,260.6,259.2,261.6,259.5,262.6"/>
	<path class="st0" d="M258.6,171.1c0-0.1,0-0.1,0.1-0.2c0.1-0.3,0.2-0.6,0.2-0.9c-0.1,0.3-0.2,0.6-0.2,0.9
		C258.7,170.9,258.7,171,258.6,171.1"/>
	<path class="st0" d="M266.7,283.4c-2-4.9-3.8-10-5.6-15.4c-0.4-1.2-0.7-2.4-1.1-3.6c0.3,1.2,0.7,2.4,1.1,3.6
		C262.9,273.4,264.7,278.6,266.7,283.4"/>
	<path class="st0" d="M83.6,97.1c0-0.5,0-1.1-0.1-1.6C83.6,96,83.6,96.5,83.6,97.1"/>
	<path class="st0" d="M259.9,166.2c0.4-1.3,0.8-2.6,1.2-3.9c3.4-10.1,6.7-19.4,11.8-27.5c-5.2,8.1-8.4,17.5-11.8,27.5
		C260.7,163.6,260.3,164.9,259.9,166.2"/>
	<path class="st0" d="M235.4,58.4c-3.1-4.5-7-9.2-12-14.2c-5.8-5.8-12.3-10.5-19.3-14.2c6.9,3.7,13.5,8.4,19.3,14.2
		C228.4,49.2,232.3,53.9,235.4,58.4"/>
	<path class="st0" d="M20.4,56.5C20.4,56.5,20.4,56.5,20.4,56.5c5.6-2.7,11.9-4.2,18.4-4.2c0,0,0,0,0,0C32.3,52.3,26,53.8,20.4,56.5
		"/>
	<path class="st0" d="M255.1,103.7c-2.9-5.9-4.9-11.8-6.9-17.6c-0.1-0.3-0.2-0.5-0.3-0.8c0.1,0.3,0.2,0.5,0.3,0.8
		C250.2,91.9,252.2,97.8,255.1,103.7"/>
	<path class="st0" d="M215.6,325c0,25-23,45.3-51.4,45.3c-6.7,0-13-1.1-18.8-3.2c5.8,2,12.2,3.2,18.8,3.2
		C192.6,370.3,215.6,350,215.6,325c0-8.8-2.9-17.1-7.8-24.1c0,0,0,0,0,0C212.7,307.9,215.6,316.2,215.6,325"/>
	<path class="st0" d="M215.6,276.9c0,3.3-0.4,6.6-1.2,9.7C215.1,283.5,215.6,280.2,215.6,276.9c0-25-23-45.3-51.4-45.3
		c-7.4,0-14.4,1.4-20.7,3.8c6.3-2.5,13.3-3.8,20.7-3.8C192.5,231.6,215.6,251.9,215.6,276.9"/>
</g>
</svg>
